<?xml version="1.0" encoding="UTF-8"?>
<svg version="1.1" xmlns="http://www.w3.org/2000/svg" width="1200" height="900">
<path d="M0 0 C2.76784936 1.26527665 4.80560836 2.55848841 6.94506836 4.71801758 C7.76127907 5.53445488 7.76127907 5.53445488 8.59397888 6.36738586 C9.45818199 7.24707283 9.45818199 7.24707283 10.33984375 8.14453125 C10.94381485 8.75133224 11.54778595 9.35813324 12.1700592 9.98332214 C14.09729535 11.92172707 16.01747166 13.86695794 17.9375 15.8125 C19.22544801 17.11048607 20.51385471 18.40801717 21.80273438 19.70507812 C24.17986269 22.0985064 26.55427079 24.49456313 28.92553711 26.89379883 C34.12265983 32.14648426 39.40816993 37.16476074 44.98828125 42.01171875 C45.98408203 42.99591797 45.98408203 42.99591797 47 44 C47 44.66 47 45.32 47 46 C47.56074219 46.22171875 48.12148438 46.4434375 48.69921875 46.671875 C51.71685287 48.41380302 53.5246286 50.62123224 55.8125 53.25 C60.86933452 58.9726025 66.3247685 64.13774441 72.0480957 69.19042969 C76.59432182 73.29377577 78.69400899 76.19508238 79.375 82.4375 C78.70283272 88.82308911 74.23050002 93.0462576 70 97.625 C69.154375 98.54539062 68.30875 99.46578125 67.4375 100.4140625 C66.633125 101.26742187 65.82875 102.12078125 65 103 C63.9171875 104.15628906 63.9171875 104.15628906 62.8125 105.3359375 C61 107 61 107 59 107 C58.6596875 107.8353125 58.6596875 107.8353125 58.3125 108.6875 C56.63004414 111.651827 54.43788339 113.61672652 52 116 C50.2510594 117.75358311 48.50246394 119.50751048 46.75415039 121.26171875 C41.69171829 126.34047055 36.62675945 131.41669445 31.56034184 136.49147034 C28.50382411 139.55321328 25.44825262 142.61588859 22.39477539 145.68066406 C19.42807227 148.65826838 16.45890036 151.63339054 13.4880352 154.60684204 C12.36171331 155.73500203 11.23626729 156.86403721 10.11174202 157.99398804 C8.53525676 159.57778241 6.9556183 161.15836862 5.37524414 162.73828125 C4.47987442 163.63587158 3.5845047 164.53346191 2.66200256 165.45825195 C-0.12908941 168.12325787 -3.02189651 170.54762085 -6 173 C-7.68846814 174.6445762 -9.35327636 176.31362613 -11 178 C-12.17115567 179.17389481 -13.34381181 180.34629367 -14.51757812 181.51757812 C-15.16174683 182.16174683 -15.80591553 182.80591553 -16.46960449 183.46960449 C-40.48242188 207.48242188 -40.48242188 207.48242188 -42.32955933 209.329422 C-43.75340273 210.75338245 -45.17679725 212.17779173 -46.60009766 213.60229492 C-48.84682906 215.84696929 -51.09804785 218.08701286 -53.3510437 220.32539368 C-55.60295071 222.56374023 -57.85204381 224.80490615 -60.10107422 227.04614258 C-61.27920821 228.21925013 -62.45823848 229.39145828 -63.63818359 230.56274414 C-65.36279295 232.2750727 -67.08401742 233.9907453 -68.8046875 235.70703125 C-69.32159149 236.21877396 -69.83849548 236.73051666 -70.37106323 237.25776672 C-73.05700728 239.94330814 -75.60883622 242.68564802 -78.07128906 245.57788086 C-82.83033518 251.06900332 -88.0398825 256.11791827 -93.20638657 261.22042084 C-95.09450618 263.08622302 -96.97838469 264.95621365 -98.8611145 266.82745361 C-104.20957632 272.14260774 -109.56214109 277.45357218 -114.92529297 282.75390625 C-118.22085089 286.01146063 -121.50875011 289.27658638 -124.79211807 292.54642487 C-126.03225799 293.77860236 -127.27514867 295.00801865 -128.5210228 296.23439789 C-138.25841933 305.82206279 -147.26282792 315.42235352 -153 328 C-153.73283203 329.20462891 -153.73283203 329.20462891 -154.48046875 330.43359375 C-165.86068804 349.65416977 -167.46422704 377.85891011 -162.25 399 C-157.64443925 416.51416345 -150.9084926 431.25759954 -139 445 C-138.03320312 446.13115234 -138.03320312 446.13115234 -137.046875 447.28515625 C-135.38417109 449.20984082 -133.71410166 451.12099742 -132 453 C-131.31357422 453.75990234 -131.31357422 453.75990234 -130.61328125 454.53515625 C-128.58247215 456.37911124 -126.36178844 457.60564968 -124 459 C-122.03900894 460.43387229 -120.08090599 461.87169902 -118.125 463.3125 C-96.97866606 478.26344098 -67.31729839 482.10184219 -42.13330078 478.6015625 C-36.60525222 477.52109445 -31.29658627 475.9007763 -26 474 C-24.9164624 473.61521484 -24.9164624 473.61521484 -23.81103516 473.22265625 C-17.7963275 471.0428839 -12.10676455 468.93185972 -7 465 C-6.34 465 -5.68 465 -5 465 C-5 464.34 -5 463.68 -5 463 C-4.01 462.67 -3.02 462.34 -2 462 C-1.34 461.34 -0.68 460.68 0 460 C1.34786663 459.15651475 2.70309197 458.32475549 4.0625 457.5 C8.65038303 454.47550386 11.96562658 450.93964557 15.53515625 446.79296875 C18.3255366 443.63112731 21.25573127 440.65462756 24.25 437.6875 C24.74540283 437.19620605 25.24080566 436.70491211 25.7512207 436.19873047 C27.16640295 434.79806413 28.58318056 433.39901025 30 432 C31.66786787 430.3345354 33.3347548 428.66808692 35 427 C40 422 40 422 41.80078125 420.234375 C42.42339844 419.62078125 43.04601562 419.0071875 43.6875 418.375 C44.55955078 417.52035156 44.55955078 417.52035156 45.44921875 416.6484375 C47.20251898 414.87617026 47.20251898 414.87617026 49 412 C49.66 412 50.32 412 51 412 C51 411.34 51 410.68 51 410 C52.37988949 408.63899899 52.37988949 408.63899899 54.34202576 407.02488708 C59.67454693 402.48545916 64.58420139 397.55621426 69.52758789 392.60180664 C70.56152609 391.56922638 71.59567627 390.53685834 72.63002014 389.50468445 C75.41738157 386.72185059 78.20160816 383.93590057 80.98511434 381.14921117 C83.91113313 378.22064447 86.83960941 375.29453677 89.76768494 372.36802673 C94.68261551 367.45491079 99.59544466 362.53970096 104.50708008 357.62329102 C110.16968912 351.95524072 115.83589137 346.29080163 121.50397307 340.62822443 C126.38758157 335.74916721 131.269222 330.86814733 136.14924997 325.98550886 C139.05635084 323.07685629 141.96410566 320.16886611 144.87364388 317.26265144 C147.61005 314.5291534 150.3439613 311.79318353 153.07604027 309.05536079 C154.07363825 308.05645088 155.07206893 307.0583717 156.07143402 306.06122971 C161.0451254 301.09757558 165.88936531 296.09283922 170.46745586 290.76118755 C172.70978472 288.18432104 175.08219204 285.7750731 177.48876953 283.35009766 C177.98894592 282.84495636 178.48912231 282.33981506 179.00445557 281.81936646 C180.62788086 280.18156408 182.25497098 278.54747485 183.8828125 276.9140625 C184.44384548 276.35020214 185.00487846 275.78634178 185.58291245 275.20539474 C188.5426646 272.23076248 191.50519287 269.25893 194.47021484 266.28955078 C197.52447875 263.2297686 200.56932735 260.16079 203.61215401 257.08963966 C205.9645961 254.71857715 208.32371628 252.35424607 210.68471909 249.99171066 C211.81071252 248.862697 212.9342121 247.73119028 214.05511856 246.59712601 C215.61974978 245.015421 217.19359319 243.4434727 218.77001953 241.87353516 C219.66157745 240.9783316 220.55313538 240.08312805 221.47171021 239.16079712 C225.61951522 235.615885 230.02705001 234.15976996 235.4536438 234.42201233 C238.64210045 235.14574793 239.94545502 236.33709634 242.32373047 238.57202148 C243.19922546 239.39338593 244.07472046 240.21475037 244.97674561 241.06100464 C251.26795552 247.14626142 257.45543183 253.33476399 263.6328125 259.53515625 C265.12045675 261.02466935 266.60832473 262.51395903 268.09640503 264.0030365 C271.98159766 267.89201759 275.8637758 271.783994 279.74530029 275.67663574 C283.71898309 279.66061226 287.69555589 283.64170191 291.671875 287.62304688 C299.45072263 295.41256696 307.22638371 303.20525949 315 311 C314.06482391 312.10223427 313.1280115 313.20308032 312.1905365 314.30335999 C311.66902984 314.91654618 311.14752317 315.52973238 310.61021328 316.16149998 C308.11812382 319.0069035 305.44803338 321.65604787 302.75390625 324.30859375 C301.89260353 325.16421654 301.89260353 325.16421654 301.01390076 326.03712463 C298.59114554 328.44375215 296.16241462 330.84431429 293.73413086 333.24536133 C284.91889208 341.95398312 284.91889208 341.95398312 276.62182617 351.15112305 C273.38848509 354.83712214 269.86044334 358.24208384 266.375 361.6875 C265.63765625 362.42033203 264.9003125 363.15316406 264.140625 363.90820312 C261.17130885 366.85889453 258.19753566 369.80496128 255.21875 372.74609375 C253.10353918 374.89482024 251.1084241 377.10481579 249.125 379.375 C245.02975902 383.95041999 240.77279059 388.33929074 236.4375 392.6875 C235.51831787 393.61344971 235.51831787 393.61344971 234.58056641 394.55810547 C231.58977422 397.53934496 228.5556984 400.41421637 225.34352112 403.15626526 C220.61350423 407.2780713 216.1869722 411.67270573 211.75756836 416.11303711 C210.8703157 416.99853745 209.98306305 417.88403778 209.06892395 418.79637146 C206.65803117 421.20364103 204.24937957 423.61310832 201.84189296 426.02378154 C199.30825727 428.55996934 196.77215941 431.09369326 194.23646545 433.62782288 C189.98063357 437.88184134 185.72690088 442.1379503 181.47436523 446.39526367 C176.57519764 451.29987229 171.67243831 456.20086837 166.76779836 461.10000414 C162.53811041 465.32513734 158.31039524 469.55223711 154.08428866 473.78095251 C151.56842609 476.29836489 149.05191479 478.81511877 146.5336132 481.33009148 C143.72387253 484.13637653 140.91827365 486.94678053 138.11303711 489.75756836 C136.87923813 490.98833099 136.87923813 490.98833099 135.62051392 492.24395752 C131.42914883 496.45062883 127.38930624 500.72713835 123.53173351 505.24297905 C120.94727158 508.20756377 118.15981396 510.96355085 115.3671875 513.73046875 C114.46759811 514.62793571 114.46759811 514.62793571 113.54983521 515.54353333 C111.66059348 517.42725275 109.76788746 519.30744485 107.875 521.1875 C106.60002588 522.45744687 105.32528454 523.72762749 104.05078125 524.99804688 C101.7109066 527.3298159 99.36970315 529.66023194 97.02685547 531.98901367 C92.03486476 536.93825152 92.03486476 536.93825152 87.11328125 541.95703125 C80.75532421 548.50807159 73.98346036 554.60415722 65.87109375 558.89453125 C63.47168057 560.31213862 61.33797334 561.99366026 59.125 563.6875 C52.4549312 568.6344677 45.19673344 572.29207683 37.81347656 576.03759766 C36.24663942 576.86910978 34.73702134 577.80680365 33.2421875 578.76171875 C31 580 31 580 27 580 C27 580.66 27 581.32 27 582 C8.82992342 588.46888375 -8.97747887 594.58607784 -28 598 C-28.84272461 598.15243164 -29.68544922 598.30486328 -30.55371094 598.46191406 C-56.88659086 603.05059431 -82.79263213 601.72096578 -108.7578125 595.90234375 C-111.46094848 595.30208587 -114.07605654 594.84847367 -116.828125 594.4609375 C-119.99532946 594.00067872 -122.67738856 593.06580999 -125.640625 591.8828125 C-128.51668361 590.80667137 -131.43231376 589.9397797 -134.375 589.0625 C-146.65965223 585.30533832 -157.76278217 579.71227155 -169.16699219 573.89453125 C-169.87243164 573.53746094 -170.57787109 573.18039062 -171.3046875 572.8125 C-171.94132324 572.48894531 -172.57795898 572.16539062 -173.23388672 571.83203125 C-175.1681017 570.8782768 -175.1681017 570.8782768 -178 570 C-178 569.34 -178 568.68 -178 568 C-179.10021484 567.59587891 -179.10021484 567.59587891 -180.22265625 567.18359375 C-194.70525296 561.01168545 -207.84169277 547.66127624 -218.7800293 536.55615234 C-220.45256725 534.85971747 -222.13836822 533.17732819 -223.82617188 531.49609375 C-229.68030697 525.62645407 -235.06510219 519.67859024 -240 513 C-240.80824219 512.01515625 -241.61648438 511.0303125 -242.44921875 510.015625 C-251.18094693 499.22668337 -258.89437901 486.93097444 -264 474 C-264.63177345 472.72146024 -265.27836981 471.45011011 -265.94140625 470.1875 C-267.94757162 466.22158678 -269.50193038 462.20158252 -270.9375 458 C-271.31926392 456.88999634 -271.31926392 456.88999634 -271.70874023 455.75756836 C-272.22940007 454.23387982 -272.74675752 452.70905867 -273.26074219 451.18310547 C-273.93180015 449.20140126 -274.62483387 447.22717254 -275.3203125 445.25390625 C-281.35248265 427.32811759 -284.75394206 408.43990493 -284.96923828 389.52783203 C-285.0018333 386.84934954 -285.07717475 384.17369747 -285.15234375 381.49609375 C-285.79441565 351.1107561 -280.26036426 319.91292415 -268 292 C-267.62230469 291.113125 -267.24460937 290.22625 -266.85546875 289.3125 C-264.40614415 283.71404378 -261.61728753 278.51717055 -258.39453125 273.328125 C-257.16368043 271.27325921 -256.12709298 269.2344372 -255.125 267.0625 C-252.93134204 262.50927717 -249.89063445 258.62719153 -246.87109375 254.59375 C-245.40507116 252.56151826 -244.19762477 250.65543965 -243.0625 248.4375 C-240.84868058 244.34291364 -237.66420852 241.1128562 -234.51171875 237.72265625 C-232.55965483 235.60665539 -230.67146503 233.4657147 -228.79418945 231.28491211 C-225.27840631 227.26132507 -221.58353483 223.47014336 -217.78125 219.71875 C-217.11967896 219.06096558 -216.45810791 218.40318115 -215.77648926 217.72546387 C-212.98421856 214.94933442 -210.18594584 212.17928463 -207.38818359 209.40869141 C-205.32959102 207.3683292 -203.27412097 205.32485669 -201.21875 203.28125 C-200.59875122 202.66954956 -199.97875244 202.05784912 -199.33996582 201.4276123 C-195.56875995 197.67725447 -192.00554585 193.80223863 -188.54067993 189.76676941 C-186.42379031 187.33923352 -184.16841016 185.07272576 -181.875 182.8125 C-181.06804687 182.01457031 -180.26109375 181.21664062 -179.4296875 180.39453125 C-178.62789063 179.60433594 -177.82609375 178.81414062 -177 178 C-175.3326906 176.33397631 -173.66611758 174.66721558 -172 173 C-170.14501321 171.14696324 -168.28989259 169.2940613 -166.43460083 167.44132996 C-165.31598604 166.3241812 -164.19737456 165.20702913 -163.07876587 164.08987427 C-162.48669971 163.49858356 -161.89463356 162.90729286 -161.28462601 162.29808426 C-147.62729799 148.65847421 -133.97285701 135.01597703 -120.32003975 121.37185192 C-112.4313515 113.4883216 -104.54172405 105.60573547 -96.64990234 97.7253418 C-89.75392532 90.83934548 -82.85972003 83.95158105 -75.96761787 77.06170636 C-72.32408171 73.4194705 -68.67967925 69.77811131 -65.0331459 66.13887596 C-61.60167746 62.71422077 -58.1725915 59.28719769 -54.7452774 55.85838509 C-53.49129772 54.60467925 -52.23646864 53.3518223 -50.98070145 52.09990692 C-45.26538598 46.40125632 -39.58818444 40.71618081 -34.34545517 34.57172108 C-32.70173595 32.65157673 -30.96644819 30.84595617 -29.17602539 29.0625 C-28.51586929 28.40241943 -27.8557132 27.74233887 -27.17555237 27.06225586 C-26.48984665 26.38171143 -25.80414093 25.70116699 -25.09765625 25 C-24.3750914 24.2788501 -23.65252655 23.5577002 -22.9080658 22.81469727 C-20.62857396 20.54074585 -18.3456076 18.27032046 -16.0625 16 C-14.50432494 14.44684765 -12.94638007 12.89346433 -11.38867188 11.33984375 C-7.59510241 7.55722414 -3.79868385 3.7774831 0 0 Z " fill="#203589" transform="translate(630,105)"/>
<path d="M0 0 C2.76784936 1.26527665 4.80560836 2.55848841 6.94506836 4.71801758 C7.76127907 5.53445488 7.76127907 5.53445488 8.59397888 6.36738586 C9.45818199 7.24707283 9.45818199 7.24707283 10.33984375 8.14453125 C10.94381485 8.75133224 11.54778595 9.35813324 12.1700592 9.98332214 C14.09729535 11.92172707 16.01747166 13.86695794 17.9375 15.8125 C19.22544801 17.11048607 20.51385471 18.40801717 21.80273438 19.70507812 C24.17986269 22.0985064 26.55427079 24.49456313 28.92553711 26.89379883 C34.12265983 32.14648426 39.40816993 37.16476074 44.98828125 42.01171875 C45.98408203 42.99591797 45.98408203 42.99591797 47 44 C47 44.66 47 45.32 47 46 C47.56074219 46.22171875 48.12148438 46.4434375 48.69921875 46.671875 C51.71685287 48.41380302 53.5246286 50.62123224 55.8125 53.25 C60.86933452 58.9726025 66.3247685 64.13774441 72.0480957 69.19042969 C76.59432182 73.29377577 78.69400899 76.19508238 79.375 82.4375 C78.70283272 88.82308911 74.23050002 93.0462576 70 97.625 C69.154375 98.54539062 68.30875 99.46578125 67.4375 100.4140625 C66.633125 101.26742187 65.82875 102.12078125 65 103 C63.9171875 104.15628906 63.9171875 104.15628906 62.8125 105.3359375 C61 107 61 107 59 107 C58.6596875 107.8353125 58.6596875 107.8353125 58.3125 108.6875 C56.63004414 111.651827 54.43788339 113.61672652 52 116 C50.2510594 117.75358311 48.50246394 119.50751048 46.75415039 121.26171875 C41.69171829 126.34047055 36.62675945 131.41669445 31.56034184 136.49147034 C28.50382411 139.55321328 25.44825262 142.61588859 22.39477539 145.68066406 C19.42807227 148.65826838 16.45890036 151.63339054 13.4880352 154.60684204 C12.36171331 155.73500203 11.23626729 156.86403721 10.11174202 157.99398804 C8.53525676 159.57778241 6.9556183 161.15836862 5.37524414 162.73828125 C4.47987442 163.63587158 3.5845047 164.53346191 2.66200256 165.45825195 C-0.12908941 168.12325787 -3.02189651 170.54762085 -6 173 C-7.68846814 174.6445762 -9.35327636 176.31362613 -11 178 C-12.17115567 179.17389481 -13.34381181 180.34629367 -14.51757812 181.51757812 C-15.16174683 182.16174683 -15.80591553 182.80591553 -16.46960449 183.46960449 C-40.48242188 207.48242188 -40.48242188 207.48242188 -42.32955933 209.329422 C-43.75340273 210.75338245 -45.17679725 212.17779173 -46.60009766 213.60229492 C-48.84682906 215.84696929 -51.09804785 218.08701286 -53.3510437 220.32539368 C-55.60295071 222.56374023 -57.85204381 224.80490615 -60.10107422 227.04614258 C-61.27920821 228.21925013 -62.45823848 229.39145828 -63.63818359 230.56274414 C-65.36279295 232.2750727 -67.08401742 233.9907453 -68.8046875 235.70703125 C-69.32159149 236.21877396 -69.83849548 236.73051666 -70.37106323 237.25776672 C-73.05700728 239.94330814 -75.60883622 242.68564802 -78.07128906 245.57788086 C-82.83033518 251.06900332 -88.0398825 256.11791827 -93.20638657 261.22042084 C-95.09450618 263.08622302 -96.97838469 264.95621365 -98.8611145 266.82745361 C-104.20957632 272.14260774 -109.56214109 277.45357218 -114.92529297 282.75390625 C-118.22085089 286.01146063 -121.50875011 289.27658638 -124.79211807 292.54642487 C-126.03225799 293.77860236 -127.27514867 295.00801865 -128.5210228 296.23439789 C-138.25841933 305.82206279 -147.26282792 315.42235352 -153 328 C-153.73283203 329.20462891 -153.73283203 329.20462891 -154.48046875 330.43359375 C-165.86068804 349.65416977 -167.46422704 377.85891011 -162.25 399 C-157.94779715 415.36054503 -151.90181294 429.75985589 -140.859375 442.71875 C-138.7060816 445.36060576 -136.8750194 448.15588037 -135 451 C-135.66763367 451.66541306 -136.33526733 452.33082611 -137.02313232 453.0164032 C-143.32303019 459.29600528 -149.62026762 465.57826446 -155.91492844 471.86311626 C-159.15094183 475.09391719 -162.38787633 478.32378377 -165.62695312 481.55151367 C-168.75439418 484.6680677 -171.8793667 487.78707753 -175.00266266 490.90778542 C-176.19305585 492.09633484 -177.38432702 493.28400562 -178.57649994 494.47076988 C-180.24964118 496.13662352 -181.91959754 497.80560986 -183.58886719 499.4753418 C-184.07942596 499.9623053 -184.56998474 500.4492688 -185.07540894 500.95098877 C-187.93726518 503.82139993 -190.47212197 506.83704583 -193 510 C-194.45755231 511.1984319 -195.91608651 512.39578047 -197.38671875 513.578125 C-199.143766 515.12670901 -200.60912972 516.77738755 -202.125 518.5625 C-207.06770915 524.375483 -212.56887379 529.64913674 -218 535 C-226.1536923 531.65832283 -233.05476347 522.36293796 -238.2109375 515.3984375 C-239.50611543 513.66210726 -240.85170659 511.96300987 -242.2265625 510.2890625 C-251.04074984 499.40424068 -258.84631782 487.05269871 -264 474 C-264.63177345 472.72146024 -265.27836981 471.45011011 -265.94140625 470.1875 C-267.94757162 466.22158678 -269.50193038 462.20158252 -270.9375 458 C-271.31926392 456.88999634 -271.31926392 456.88999634 -271.70874023 455.75756836 C-272.22940007 454.23387982 -272.74675752 452.70905867 -273.26074219 451.18310547 C-273.93180015 449.20140126 -274.62483387 447.22717254 -275.3203125 445.25390625 C-281.35248265 427.32811759 -284.75394206 408.43990493 -284.96923828 389.52783203 C-285.0018333 386.84934954 -285.07717475 384.17369747 -285.15234375 381.49609375 C-285.79441565 351.1107561 -280.26036426 319.91292415 -268 292 C-267.62230469 291.113125 -267.24460937 290.22625 -266.85546875 289.3125 C-264.40614415 283.71404378 -261.61728753 278.51717055 -258.39453125 273.328125 C-257.16368043 271.27325921 -256.12709298 269.2344372 -255.125 267.0625 C-252.93134204 262.50927717 -249.89063445 258.62719153 -246.87109375 254.59375 C-245.40507116 252.56151826 -244.19762477 250.65543965 -243.0625 248.4375 C-240.84868058 244.34291364 -237.66420852 241.1128562 -234.51171875 237.72265625 C-232.55965483 235.60665539 -230.67146503 233.4657147 -228.79418945 231.28491211 C-225.27840631 227.26132507 -221.58353483 223.47014336 -217.78125 219.71875 C-217.11967896 219.06096558 -216.45810791 218.40318115 -215.77648926 217.72546387 C-212.98421856 214.94933442 -210.18594584 212.17928463 -207.38818359 209.40869141 C-205.32959102 207.3683292 -203.27412097 205.32485669 -201.21875 203.28125 C-200.59875122 202.66954956 -199.97875244 202.05784912 -199.33996582 201.4276123 C-195.56875995 197.67725447 -192.00554585 193.80223863 -188.54067993 189.76676941 C-186.42379031 187.33923352 -184.16841016 185.07272576 -181.875 182.8125 C-181.06804687 182.01457031 -180.26109375 181.21664062 -179.4296875 180.39453125 C-178.62789063 179.60433594 -177.82609375 178.81414062 -177 178 C-175.3326906 176.33397631 -173.66611758 174.66721558 -172 173 C-170.14501321 171.14696324 -168.28989259 169.2940613 -166.43460083 167.44132996 C-165.31598604 166.3241812 -164.19737456 165.20702913 -163.07876587 164.08987427 C-162.48669971 163.49858356 -161.89463356 162.90729286 -161.28462601 162.29808426 C-147.62729799 148.65847421 -133.97285701 135.01597703 -120.32003975 121.37185192 C-112.4313515 113.4883216 -104.54172405 105.60573547 -96.64990234 97.7253418 C-89.75392532 90.83934548 -82.85972003 83.95158105 -75.96761787 77.06170636 C-72.32408171 73.4194705 -68.67967925 69.77811131 -65.0331459 66.13887596 C-61.60167746 62.71422077 -58.1725915 59.28719769 -54.7452774 55.85838509 C-53.49129772 54.60467925 -52.23646864 53.3518223 -50.98070145 52.09990692 C-45.26538598 46.40125632 -39.58818444 40.71618081 -34.34545517 34.57172108 C-32.70173595 32.65157673 -30.96644819 30.84595617 -29.17602539 29.0625 C-28.51586929 28.40241943 -27.8557132 27.74233887 -27.17555237 27.06225586 C-26.48984665 26.38171143 -25.80414093 25.70116699 -25.09765625 25 C-24.3750914 24.2788501 -23.65252655 23.5577002 -22.9080658 22.81469727 C-20.62857396 20.54074585 -18.3456076 18.27032046 -16.0625 16 C-14.50432494 14.44684765 -12.94638007 12.89346433 -11.38867188 11.33984375 C-7.59510241 7.55722414 -3.79868385 3.7774831 0 0 Z " fill="#972C63" transform="translate(630,105)"/>
<path d="M0 0 C2.76784936 1.26527665 4.80560836 2.55848841 6.94506836 4.71801758 C7.48920883 5.26230911 8.0333493 5.80660065 8.59397888 6.36738586 C9.17011429 6.95384384 9.74624969 7.54030182 10.33984375 8.14453125 C10.94381485 8.75133224 11.54778595 9.35813324 12.1700592 9.98332214 C14.09729535 11.92172707 16.01747166 13.86695794 17.9375 15.8125 C19.22544801 17.11048607 20.51385471 18.40801717 21.80273438 19.70507812 C24.17986269 22.0985064 26.55427079 24.49456313 28.92553711 26.89379883 C34.12265983 32.14648426 39.40816993 37.16476074 44.98828125 42.01171875 C45.65214844 42.66785156 46.31601562 43.32398438 47 44 C47 44.66 47 45.32 47 46 C47.56074219 46.22171875 48.12148438 46.4434375 48.69921875 46.671875 C51.71685287 48.41380302 53.5246286 50.62123224 55.8125 53.25 C60.86933452 58.9726025 66.3247685 64.13774441 72.0480957 69.19042969 C76.59432182 73.29377577 78.69400899 76.19508238 79.375 82.4375 C78.70283272 88.82308911 74.23050002 93.0462576 70 97.625 C69.154375 98.54539062 68.30875 99.46578125 67.4375 100.4140625 C66.633125 101.26742187 65.82875 102.12078125 65 103 C64.278125 103.77085937 63.55625 104.54171875 62.8125 105.3359375 C61 107 61 107 59 107 C58.6596875 107.8353125 58.6596875 107.8353125 58.3125 108.6875 C56.62962621 111.65256335 54.43910975 113.6162886 52 116 C51.15012009 116.84987991 50.30024017 117.69975983 49.42460632 118.57539368 C32.94973755 135.05026245 16.47486877 151.52513123 0 168 C-0.33 167.01 -0.66 166.02 -1 165 C-10.92335565 165.61074536 -20.80816558 166.40363388 -30.70288086 167.3828125 C-32.10094323 167.5194622 -33.49902533 167.65591018 -34.89712524 167.79217529 C-38.64273142 168.15783089 -42.38805186 168.52633697 -46.13331676 168.89546967 C-50.07583156 169.28359588 -54.0185916 169.66921602 -57.96131897 170.05517578 C-64.57047822 170.70252419 -71.17946142 171.35164507 -77.78833008 172.00195312 C-85.41191273 172.752096 -93.03572545 173.49986272 -100.65967458 174.24627113 C-108.81350342 175.0445748 -116.96717106 175.84451524 -125.12078786 176.64498138 C-127.45704459 176.87423468 -129.7933299 177.10319475 -132.12962151 177.33209229 C-135.80455922 177.69223178 -139.4793864 178.05347978 -143.15413284 178.41556549 C-145.13478596 178.61048612 -147.11554038 178.8043764 -149.09629822 178.99822998 C-155.07678166 179.58862192 -161.03949864 180.2352313 -167 181 C-168.62301614 181.10173425 -170.24886288 181.17303259 -171.875 181.1875 C-172.61492187 181.20167969 -173.35484375 181.21585938 -174.1171875 181.23046875 C-176 181 -176 181 -178 179 C-174.46701123 175.46632006 -170.93239128 171.93427895 -167.39663696 168.40336609 C-166.26952302 167.2777182 -165.14241239 166.15206698 -164.01530457 165.02641296 C-163.12031785 164.13258943 -163.12031785 164.13258943 -162.2072506 163.22070885 C-148.44533146 149.47650589 -134.68629758 135.72941759 -120.92888832 121.98070049 C-112.97966589 114.03663605 -105.02950426 106.09351577 -97.07714844 98.15258789 C-90.12843385 91.21385371 -83.18149072 84.27335167 -76.23665082 77.33073932 C-72.56516898 73.66055782 -68.89282063 69.99125312 -65.21834183 66.32407188 C-61.76060881 62.87315164 -58.30525769 59.41986399 -54.85167885 55.96478653 C-53.58802382 54.70140536 -52.32351925 53.43887322 -51.05807686 52.17728233 C-45.31607433 46.45189322 -39.60879926 40.74232727 -34.34222794 34.56849384 C-32.69981802 32.64921489 -30.96537406 30.84488622 -29.17602539 29.0625 C-28.18579124 28.07237915 -28.18579124 28.07237915 -27.17555237 27.06225586 C-26.48984665 26.38171143 -25.80414093 25.70116699 -25.09765625 25 C-24.3750914 24.2788501 -23.65252655 23.5577002 -22.9080658 22.81469727 C-20.62857396 20.54074585 -18.3456076 18.27032046 -16.0625 16 C-14.50432494 14.44684765 -12.94638007 12.89346433 -11.38867188 11.33984375 C-7.59510241 7.55722414 -3.79868385 3.7774831 0 0 Z " fill="#CE3A84" transform="translate(630,105)"/>
<path d="M0 0 C2.16281128 1.48973083 2.16281128 1.48973083 4.35888672 3.57202148 C5.22930603 4.39338593 6.09972534 5.21475037 6.996521 6.06100464 C7.99974406 7.03855664 9.00076131 8.0183756 10 9 C10.55648476 9.54430286 11.11296951 10.08860573 11.68631744 10.64940262 C16.36986267 15.2434352 21.00249471 19.88758989 25.6328125 24.53515625 C27.12045675 26.02466935 28.60832473 27.51395903 30.09640503 29.0030365 C33.98159766 32.89201759 37.8637758 36.783994 41.74530029 40.67663574 C45.71898309 44.66061226 49.69555589 48.64170191 53.671875 52.62304688 C61.45072263 60.41256696 69.22638371 68.20525949 77 76 C76.06482391 77.10223427 75.1280115 78.20308032 74.1905365 79.30335999 C73.40827651 80.22313928 73.40827651 80.22313928 72.61021328 81.16149998 C70.11812382 84.0069035 67.44803338 86.65604787 64.75390625 89.30859375 C64.17970444 89.87900894 63.60550262 90.44942413 63.01390076 91.03712463 C60.59114554 93.44375215 58.16241462 95.84431429 55.73413086 98.24536133 C46.91889208 106.95398312 46.91889208 106.95398312 38.62182617 116.15112305 C35.38848509 119.83712214 31.86044334 123.24208384 28.375 126.6875 C27.63765625 127.42033203 26.9003125 128.15316406 26.140625 128.90820312 C23.18172031 131.84854837 20.21883669 134.78457778 17.24609375 137.7109375 C14.95766253 140.0431474 12.82353258 142.4656378 10.6875 144.9375 C7.35620172 148.66788892 4.02180551 151.792503 -0.078125 154.6484375 C-2.11992237 156.01074815 -2.11992237 156.01074815 -4.12155151 158.0458374 C-7.75147213 160.51017023 -10.73741885 160.58264396 -14.97705078 160.61816406 C-16.60107366 160.6706239 -18.22495889 160.72748626 -19.84869385 160.78820801 C-20.69525795 160.81784134 -21.54182205 160.84747467 -22.41403961 160.87800598 C-26.69647199 161.08003194 -30.95089383 161.51108958 -35.21435547 161.95214844 C-36.10051576 162.04268053 -36.98667604 162.13321262 -37.89968967 162.22648811 C-40.72254914 162.5174151 -43.54485543 162.81337942 -46.3671875 163.109375 C-48.39906177 163.31920422 -50.4309792 163.52861579 -52.4629364 163.73764038 C-56.7361146 164.17786601 -61.00903856 164.62045023 -65.2817688 165.06500244 C-75.22528803 166.09917138 -85.17030393 167.11879513 -95.11518288 168.13978958 C-98.38091216 168.47516389 -101.64659762 168.81096237 -104.91227722 169.14682007 C-120.3914724 170.73787827 -135.87202121 172.31225728 -151.36016846 173.81408691 C-153.47145306 174.01907069 -155.58258267 174.22565807 -157.69354248 174.43395996 C-160.52575462 174.71302573 -163.35844727 174.98644809 -166.19140625 175.2578125 C-166.97118332 175.33542816 -167.75096039 175.41304382 -168.55436707 175.49301147 C-173.72221631 175.97730183 -178.80919679 176.06096635 -184 176 C-183.45346936 172.00802785 -181.55683492 170.18856599 -178.75082397 167.39678955 C-177.83400848 166.47729523 -176.91719299 165.5578009 -175.97259521 164.61044312 C-174.94849796 163.59855851 -173.92426232 162.58681395 -172.89990234 161.57519531 C-171.82673126 160.50450765 -170.75422743 159.43315083 -169.68234253 158.36117554 C-167.37149055 156.05303059 -165.05595346 153.74972805 -162.73667526 151.45005035 C-159.06436395 147.8087656 -155.40245948 144.15713421 -151.74185181 140.50408936 C-145.94423342 134.72097079 -140.13944241 128.94511137 -134.33168852 123.17217326 C-123.94936939 112.8516523 -113.57901217 102.51911908 -103.2115742 92.18365169 C-99.57616877 88.56002893 -95.93760508 84.93961656 -92.29631495 81.32190752 C-90.02190028 79.06140845 -87.74954104 76.79885089 -85.47761917 74.53584671 C-84.43008682 73.49334571 -83.3816735 72.45172899 -82.33227539 71.41110611 C-77.21099642 66.33193258 -72.21084427 61.22443727 -67.51670837 55.74660492 C-65.27884372 53.16953376 -62.9040725 50.76905417 -60.49536133 48.35009766 C-59.7426873 47.59238571 -59.7426873 47.59238571 -58.97480774 46.81936646 C-57.34646547 45.18166876 -55.71451582 43.54763039 -54.08203125 41.9140625 C-52.93569428 40.76450592 -51.78942989 39.61487695 -50.64323425 38.46517944 C-48.25553853 36.07153385 -45.86582384 33.67992521 -43.47485352 31.28955078 C-40.41327046 28.22806998 -37.35866312 25.15972779 -34.30571461 22.08963966 C-31.94739368 19.72020854 -29.58455024 17.35532787 -27.22040367 14.99171066 C-26.09168468 13.86181327 -24.96458308 12.73029774 -23.83915138 11.59712601 C-22.26962615 10.01780601 -20.6938952 8.44494431 -19.11645508 6.87353516 C-18.22267654 5.9783316 -17.32889801 5.08312805 -16.40803528 4.16079712 C-11.39565146 -0.33695448 -6.57514515 -1.35242522 0 0 Z " fill="#3659E3" transform="translate(868,340)"/>
<path d="M0 0 C0 3 0 3 -1.36669922 4.72746277 C-2.00623535 5.36033707 -2.64577148 5.99321136 -3.3046875 6.64526367 C-4.02543457 7.36578415 -4.74618164 8.08630463 -5.48876953 8.82865906 C-6.27622559 9.60063126 -7.06368164 10.37260345 -7.875 11.16796875 C-9.07358643 12.36018791 -9.07358643 12.36018791 -10.29638672 13.57649231 C-12.85732394 16.12059854 -15.42848137 18.65409392 -18 21.1875 C-19.73505674 22.9075157 -21.46944074 24.6282103 -23.203125 26.34960938 C-27.46096689 30.57432329 -31.72725243 34.79036476 -36 39 C-36.66 38.67 -37.32 38.34 -38 38 C-13 13 -13 13 -11.19921875 11.234375 C-10.57660156 10.62078125 -9.95398438 10.0071875 -9.3125 9.375 C-8.73113281 8.80523438 -8.14976562 8.23546875 -7.55078125 7.6484375 C-5.79748102 5.87617026 -5.79748102 5.87617026 -4 3 C-3.34 3 -2.68 3 -2 3 C-2 2.34 -2 1.68 -2 1 C-1.34 0.67 -0.68 0.34 0 0 Z " fill="#172B60" transform="translate(683,514)"/>
<path d="M0 0 C-1.55603771 3.81936528 -3.95604931 6.26044438 -7 9 C-7.66 9 -8.32 9 -9 9 C-9.33 9.66 -9.66 10.32 -10 11 C-9.42380903 7.43235179 -8.13030516 5.74840503 -5.5625 3.25 C-4.94503906 2.63640625 -4.32757812 2.0228125 -3.69140625 1.390625 C-2 0 -2 0 0 0 Z " fill="#B3342A" transform="translate(698,203)"/>
</svg>
